<svg xmlns="http://www.w3.org/2000/svg" version="1.1" xmlns:xlink="http://www.w3.org/1999/xlink" xmlns:svgjs="http://svgjs.dev/svgjs" width="1000" height="623" viewBox="0 0 1000 623"><g transform="matrix(1,0,0,1,-0.6060606060606233,113.83020095693774)"><svg viewBox="0 0 396 247" data-background-color="#ffffff" preserveAspectRatio="xMidYMid meet" height="623" width="1000" xmlns="http://www.w3.org/2000/svg" xmlns:xlink="http://www.w3.org/1999/xlink"><g id="tight-bounds" transform="matrix(1,0,0,1,0.2400000000000091,-0.09999999999999432)"><svg viewBox="0 0 395.52 247.2" height="247.2" width="395.52"><g><svg></svg></g><g><svg viewBox="0 0 395.52 247.2" height="247.2" width="395.52"><g transform="matrix(1,0,0,1,75.54432,53.36110344827587)"><svg viewBox="0 0 244.43135999999998 140.47779310344825" height="140.47779310344825" width="244.43135999999998"><g><svg viewBox="0 0 244.43135999999998 140.47779310344825" height="140.47779310344825" width="244.43135999999998"><g><svg viewBox="0 0 244.43135999999998 140.47779310344825" height="140.47779310344825" width="244.43135999999998"><g><svg viewBox="0 0 244.43135999999998 140.47779310344825" height="140.47779310344825" width="244.43135999999998"><g id="textblocktransform"><svg viewBox="0 0 244.43135999999998 140.47779310344825" height="140.47779310344825" width="244.43135999999998" id="textblock"><g><svg viewBox="0 0 244.43135999999998 140.47779310344825" height="140.47779310344825" width="244.43135999999998"><g transform="matrix(1,0,0,1,0,0)"><svg width="244.43135999999998" viewBox="0.9000000357627869 -37.5 65.25 37.5" height="140.47779310344825" data-palette-color="#4d7e3e"><path d="M11.6-32.05L17-32.8 17-15.8Q19.2-15.8 20.78-16.73 22.35-17.65 23.35-19.1 24.35-20.55 24.83-22.38 25.3-24.2 25.3-26L25.3-26Q25.3-27.6 24.98-29.3 24.65-31 23.6-32.43 22.55-33.85 20.6-34.77 18.65-35.7 15.4-35.7L15.4-35.7Q13.2-35.7 11.25-35.02 9.3-34.35 7.88-33.08 6.45-31.8 5.63-29.93 4.8-28.05 4.8-25.6L4.8-25.6Q4.8-24.05 5.05-23 5.3-21.95 5.65-21.25 6-20.55 6.35-20.18 6.7-19.8 6.9-19.65L6.9-19.65Q4.1-19.65 2.5-21.05 0.9-22.45 0.9-25.7L0.9-25.7Q0.9-28.1 2.15-30.23 3.4-32.35 5.5-33.98 7.6-35.6 10.35-36.55 13.1-37.5 16.15-37.5L16.15-37.5Q19.45-37.5 22.05-36.68 24.65-35.85 26.4-34.38 28.15-32.9 29.08-30.95 30-29 30-26.75L30-26.75Q30-24.65 29.25-22.43 28.5-20.2 27-18.4 25.5-16.6 23.28-15.43 21.05-14.25 18.1-14.25L18.1-14.25 17-14.25 17 0 11.6 0 11.6-32.05ZM53.15 0L47.8 0 43.35-25.7 39.3 0 36.3 0 41.8-35Q38.65-34.3 36.95-31.98 35.25-29.65 35.25-25.45L35.25-25.45Q35.25-23.75 35.47-22.68 35.7-21.6 36-20.95 36.3-20.3 36.62-20.03 36.95-19.75 37.1-19.65L37.1-19.65Q34.4-19.65 32.75-21.03 31.1-22.4 31.1-25.35L31.1-25.35Q31.1-27.8 32.3-30.03 33.5-32.25 35.35-33.9 37.2-35.55 39.42-36.52 41.65-37.5 43.75-37.5L43.75-37.5Q44.55-37.5 45.32-37.35 46.1-37.2 46.8-36.8L46.8-36.8 51.8-7.75 57.65-36.8 63.35-36.8 66.15 0 60.45 0 58.45-26.2 53.15 0Z" opacity="1" transform="matrix(1,0,0,1,0,0)" fill="#000000" class="wordmark-text-0" data-fill-palette-color="primary" id="text-0"></path></svg></g></svg></g></svg></g></svg></g><g></g></svg></g></svg></g></svg></g><g><path d="M132.609 20.198A122.216 122.216 0 0 1 262.911 20.198L250.242 20.198A109.547 109.547 0 0 0 145.278 20.198L132.609 20.198M132.609 227.002A122.216 122.216 0 0 0 262.911 227.002L250.242 227.002A109.547 109.547 0 0 1 145.278 227.002L132.609 227.002" fill="#000000" stroke="transparent" data-fill-palette-color="tertiary"></path></g></svg></g><defs></defs></svg><rect width="395.52" height="247.2" fill="none" stroke="none" visibility="hidden"></rect></g></svg></g></svg>